<svg width="22" height="12" viewBox="0 0 22 12" fill="none" xmlns="http://www.w3.org/2000/svg">
<path d="M1.51325 11.918C1.62541 12.0273 1.80632 12.0273 1.9221 11.918L6.92597 7.06218L11.5427 11.5933C11.6549 11.7027 11.8394 11.7027 11.9515 11.5933L21.9159 1.87822C22.028 1.76883 22.028 1.58885 21.9159 1.47946L20.4831 0.0820119C20.4287 0.0294728 20.3552 0 20.2787 0C20.2021 0 20.1286 0.0294728 20.0742 0.0820119L11.7526 8.19496L7.14305 3.67091C7.08865 3.61837 7.01519 3.58889 6.93863 3.58889C6.86207 3.58889 6.78861 3.61837 6.73421 3.67091L0.0840855 10.1182C0.030218 10.1713 0 10.2429 0 10.3176C0 10.3923 0.030218 10.4639 0.0840855 10.517L1.51325 11.918Z" fill="#FF5B5A"/>
</svg>
