<svg width="32" height="32" viewBox="0 0 32 32" fill="none" xmlns="http://www.w3.org/2000/svg">
<path d="M3.35101 23.8906C3.50055 24.0365 3.74176 24.0365 3.89614 23.8906L10.568 17.4162L16.7236 23.4577C16.8732 23.6036 17.1192 23.6036 17.2687 23.4577L30.5545 10.5043C30.7041 10.3584 30.7041 10.1185 30.5545 9.97261L28.6441 8.10935C28.5716 8.0393 28.4737 8 28.3716 8C28.2695 8 28.1715 8.0393 28.099 8.10935L17.0034 18.9266L10.8574 12.8945C10.7849 12.8245 10.6869 12.7852 10.5849 12.7852C10.4828 12.7852 10.3848 12.8245 10.3123 12.8945L1.44546 21.491C1.37363 21.5617 1.33334 21.6572 1.33334 21.7568C1.33334 21.8564 1.37363 21.9519 1.44546 22.0226L3.35101 23.8906Z" fill="#00A28A"/>
</svg>
