<svg width="103" height="24" viewBox="0 0 103 24" fill="none" xmlns="http://www.w3.org/2000/svg">
<path d="M2.51325 17.918C2.62541 18.0273 2.80632 18.0273 2.9221 17.918L7.92597 13.0622L12.5427 17.5933C12.6549 17.7027 12.8394 17.7027 12.9515 17.5933L22.9159 7.87822C23.028 7.76883 23.028 7.58885 22.9159 7.47946L21.4831 6.08201C21.4287 6.02947 21.3552 6 21.2787 6C21.2021 6 21.1286 6.02947 21.0742 6.08201L12.7526 14.195L8.14305 9.67091C8.08865 9.61837 8.01519 9.58889 7.93863 9.58889C7.86207 9.58889 7.78861 9.61837 7.73421 9.67091L1.08409 16.1182C1.03022 16.1713 1 16.2429 1 16.3176C1 16.3923 1.03022 16.4639 1.08409 16.517L2.51325 17.918Z" fill="#FF5B5A"/>
<path d="M35.68 18.2C34.6133 18.2 33.8067 17.9 33.26 17.3C32.7133 16.6867 32.44 15.8133 32.44 14.68V13.88H34.52V14.84C34.52 15.7467 34.9 16.2 35.66 16.2C36.0333 16.2 36.3133 16.0933 36.5 15.88C36.7 15.6533 36.8 15.2933 36.8 14.8C36.8 14.2133 36.6667 13.7 36.4 13.26C36.1333 12.8067 35.64 12.2667 34.92 11.64C34.0133 10.84 33.38 10.12 33.02 9.48C32.66 8.82667 32.48 8.09333 32.48 7.28C32.48 6.17333 32.76 5.32 33.32 4.72C33.88 4.10667 34.6933 3.8 35.76 3.8C36.8133 3.8 37.6067 4.10667 38.14 4.72C38.6867 5.32 38.96 6.18667 38.96 7.32V7.9H36.88V7.18C36.88 6.7 36.7867 6.35333 36.6 6.14C36.4133 5.91333 36.14 5.8 35.78 5.8C35.0467 5.8 34.68 6.24667 34.68 7.14C34.68 7.64667 34.8133 8.12 35.08 8.56C35.36 9 35.86 9.53333 36.58 10.16C37.5 10.96 38.1333 11.6867 38.48 12.34C38.8267 12.9933 39 13.76 39 14.64C39 15.7867 38.7133 16.6667 38.14 17.28C37.58 17.8933 36.76 18.2 35.68 18.2ZM43.4414 18.2C42.3614 18.2 41.5347 17.8933 40.9614 17.28C40.3881 16.6667 40.1014 15.8 40.1014 14.68V7.32C40.1014 6.2 40.3881 5.33333 40.9614 4.72C41.5347 4.10667 42.3614 3.8 43.4414 3.8C44.5214 3.8 45.3481 4.10667 45.9214 4.72C46.4947 5.33333 46.7814 6.2 46.7814 7.32V14.68C46.7814 15.8 46.4947 16.6667 45.9214 17.28C45.3481 17.8933 44.5214 18.2 43.4414 18.2ZM43.4414 16.2C44.2014 16.2 44.5814 15.74 44.5814 14.82V7.18C44.5814 6.26 44.2014 5.8 43.4414 5.8C42.6814 5.8 42.3014 6.26 42.3014 7.18V14.82C42.3014 15.74 42.6814 16.2 43.4414 16.2ZM51.3692 18.2C50.3159 18.2 49.5092 17.9 48.9492 17.3C48.4026 16.7 48.1292 15.8533 48.1292 14.76V7.24C48.1292 6.14667 48.4026 5.3 48.9492 4.7C49.5092 4.1 50.3159 3.8 51.3692 3.8C52.4226 3.8 53.2226 4.1 53.7692 4.7C54.3292 5.3 54.6092 6.14667 54.6092 7.24V8.72H52.5292V7.1C52.5292 6.23333 52.1626 5.8 51.4292 5.8C50.6959 5.8 50.3292 6.23333 50.3292 7.1V14.92C50.3292 15.7733 50.6959 16.2 51.4292 16.2C52.1626 16.2 52.5292 15.7733 52.5292 14.92V12.78H54.6092V14.76C54.6092 15.8533 54.3292 16.7 53.7692 17.3C53.2226 17.9 52.4226 18.2 51.3692 18.2ZM55.9255 4H58.1255V18H55.9255V4ZM61.4731 4H64.4531L66.7331 18H64.5331L64.1331 15.22V15.26H61.6331L61.2331 18H59.1931L61.4731 4ZM63.8731 13.36L62.8931 6.44H62.8531L61.8931 13.36H63.8731ZM67.8005 4H70.0005V16H73.6205V18H67.8005V4ZM77.5355 18.2C76.4688 18.2 75.6621 17.9 75.1155 17.3C74.5688 16.6867 74.2955 15.8133 74.2955 14.68V13.88H76.3755V14.84C76.3755 15.7467 76.7555 16.2 77.5155 16.2C77.8888 16.2 78.1688 16.0933 78.3555 15.88C78.5555 15.6533 78.6555 15.2933 78.6555 14.8C78.6555 14.2133 78.5221 13.7 78.2555 13.26C77.9888 12.8067 77.4955 12.2667 76.7755 11.64C75.8688 10.84 75.2355 10.12 74.8755 9.48C74.5155 8.82667 74.3355 8.09333 74.3355 7.28C74.3355 6.17333 74.6155 5.32 75.1755 4.72C75.7355 4.10667 76.5488 3.8 77.6155 3.8C78.6688 3.8 79.4621 4.10667 79.9955 4.72C80.5421 5.32 80.8155 6.18667 80.8155 7.32V7.9H78.7355V7.18C78.7355 6.7 78.6421 6.35333 78.4555 6.14C78.2688 5.91333 77.9955 5.8 77.6355 5.8C76.9021 5.8 76.5355 6.24667 76.5355 7.14C76.5355 7.64667 76.6688 8.12 76.9355 8.56C77.2155 9 77.7155 9.53333 78.4355 10.16C79.3555 10.96 79.9888 11.6867 80.3355 12.34C80.6821 12.9933 80.8555 13.76 80.8555 14.64C80.8555 15.7867 80.5688 16.6667 79.9955 17.28C79.4355 17.8933 78.6155 18.2 77.5355 18.2ZM83.8369 6H81.5369V4H88.3369V6H86.0369V18H83.8369V6ZM90.1841 4H93.1641L95.4441 18H93.2441L92.8441 15.22V15.26H90.3441L89.9441 18H87.9041L90.1841 4ZM92.5841 13.36L91.6041 6.44H91.5641L90.6041 13.36H92.5841ZM97.3134 6H95.0134V4H101.813V6H99.5134V18H97.3134V6Z" fill="#454256"/>
</svg>
